<?xml version="1.0" encoding="UTF-8" standalone="no"?>
<!-- Created with Inkscape (http://www.inkscape.org/) -->

<svg
   width="64mm"
   height="64mm"
   viewBox="0 0 64 64"
   version="1.1"
   id="svg1"
   xml:space="preserve"
   xmlns="http://www.w3.org/2000/svg"
   xmlns:svg="http://www.w3.org/2000/svg"><defs
     id="defs1" /><g
     id="layer1"><path
       d="m 21.479966,61.376728 c 0.767578,-0.693279 0.665439,-3.75213 -0.144196,-4.313206 -0.959172,-0.665639 -2.349151,-0.547795 -2.937107,0.249226 -0.609497,0.824536 -0.671894,3.330533 -0.09969,4.014263 0.784579,0.938903 2.173225,0.960534 3.180951,0.0506 z m -2.059468,-0.619904 c -0.418793,-0.397246 -0.228312,-2.506312 0.260799,-2.89179 0.634641,-0.499721 0.90216,0.108795 0.759432,1.719981 -0.09881,1.118295 -0.541404,1.626365 -1.020856,1.171241 z m 16.414824,-4.663263 c 0,-2.842897 -0.170898,-3.020961 -1.927868,-2.007542 -0.667886,0.385226 -0.881377,0.684929 -0.693032,0.973819 0.149089,0.23025 0.506601,0.330825 0.793525,0.226454 0.441489,-0.161296 0.521954,0.08413 0.521954,1.590562 0,1.574557 0.07298,1.780897 0.652488,1.780897 0.599794,0 0.652444,-0.20558 0.652444,-2.564254 z M 14.302333,54.612557 c 0,-2.524656 -0.03115,-2.629977 -0.734333,-2.62011 -0.906033,0.01272 -2.330193,1.090591 -2.036638,1.54097 0.118384,0.181548 0.496898,0.24543 0.84061,0.142316 0.568997,-0.170788 0.624895,-0.02531 0.624895,1.689556 0,1.671339 0.07298,1.877615 0.652488,1.877615 0.601396,0 0.652488,-0.20558 0.652488,-2.630419 z M 5.4933236,54.457581 c 0.8468323,-0.802839 0.9171858,-3.542248 0.1126429,-4.385573 -0.7164994,-0.751095 -2.1494181,-0.718582 -2.8979344,0.05692 -0.9273196,0.971416 -0.837593,3.603986 0.1483352,4.361598 0.9699511,0.745152 1.8213985,0.731867 2.6366278,-0.03797 z M 3.5357533,52.291267 c 0,-1.350316 0.086741,-1.576835 0.5706076,-1.488403 0.4425132,0.08413 0.570603,0.41622 0.570603,1.488403 0,1.072499 -0.1288424,1.407627 -0.570603,1.488529 -0.4838896,0.08413 -0.5706076,-0.138538 -0.5706076,-1.488529 z m 24.5433707,1.315274 c 1.793373,-1.937202 0.461204,-5.456363 -1.856572,-4.904585 -0.445049,0.108797 -0.984138,0.50288 -1.198653,0.883491 -0.598192,1.060478 -0.486306,3.215471 0.204278,3.939493 0.73193,0.766786 2.17812,0.807711 2.851036,0.08413 z m -1.967833,-2.166314 c 0.07298,-1.058013 0.236766,-1.469934 0.5884,-1.469934 0.352479,0 0.517148,0.411794 0.589291,1.469934 0.08901,1.318941 0.03116,1.469996 -0.589291,1.469996 -0.617596,0 -0.678389,-0.151806 -0.5884,-1.469996 z m 30.033666,-0.08413 c 0.852359,-0.206846 1.549708,-0.48011 1.549708,-0.606621 0,-0.126505 -0.443269,-1.250879 -0.985963,-2.498279 -1.6174,-3.720375 -2.055152,-5.712738 -2.079007,-9.461706 l -0.02226,-3.443633 -2.126982,-0.187869 c -2.576882,-0.228984 -5.354394,-0.882352 -8.065505,-1.898997 l -2.023332,-0.758369 -1.89173,1.895515 c -2.997635,3.003627 -7.237537,6.846785 -9.757542,8.844774 -2.6452,2.097366 -2.815121,1.610552 1.387754,3.97631 l 2.330905,1.312047 2.137353,-2.71493 c 1.1756,-1.493211 2.758598,-3.639157 3.517896,-4.768963 1.40765,-2.094203 2.066503,-2.591834 1.110847,-0.838959 -0.291064,0.533243 -1.245561,2.898497 -2.121732,5.256032 l -1.592967,4.286325 1.363544,0.493393 c 1.814023,0.656024 6.75715,1.833463 6.946563,1.653754 0.08277,-0.08412 0.528452,-2.144997 0.99175,-4.592607 0.990103,-5.234654 1.199054,-5.859112 1.334169,-3.986178 0.129067,1.789059 1.065762,8.418812 1.223845,8.661397 0.171789,0.263775 4.930398,-0.173312 6.772282,-0.62117 z M 20.370591,50.666421 c -0.11661,-0.553487 -0.88703,-4.375136 -1.711887,-8.493011 -1.679974,-8.38712 -1.689364,-9.434632 -0.1037,-11.511249 1.609301,-2.107171 2.80644,-2.479682 10.728287,-3.339263 7.733412,-0.838958 8.450031,-0.789682 10.943245,0.746291 l 1.291892,0.796829 1.411787,-1.517247 1.411745,-1.517376 -0.909238,-0.702959 c -0.500104,-0.386492 -1.716781,-1.083315 -2.703634,-1.547358 -1.655275,-0.778802 -2.100059,-0.843829 -5.734115,-0.843829 h -3.939801 l -1.07484,-6.620267 C 28.664408,8.0116659 28.532851,7.5478761 27.188355,6.2725172 26.280097,5.4107231 25.876615,5.2517619 24.595673,5.2517619 c -2.786282,0 -5.073482,1.8308694 -5.073482,4.0611978 0,0.6752529 0.955122,4.2385033 2.122532,7.9176383 1.167278,3.678945 2.084883,6.714958 2.039086,6.74646 -0.04896,0.03797 -1.092731,0.21064 -2.32641,0.398511 -4.021517,0.612313 -5.281943,1.879449 -7.603591,7.644941 -1.027264,2.55116 -1.243425,3.475135 -1.230696,5.260904 0.0178,2.112168 0.0939,2.314648 3.166619,8.093235 1.733203,3.259877 3.341213,5.999222 3.57344,6.087591 1.065896,0.405468 1.321932,0.221394 1.10724,-0.796831 z M 23.19114,11.363958 c -0.736781,-0.873875 -0.771628,-1.7419946 -0.09657,-2.3825839 0.80158,-0.7607748 1.422913,-0.804105 2.114077,-0.1480175 0.606247,0.5756256 0.67514,2.0206364 0.120616,2.5464164 -0.51145,0.485171 -1.724213,0.475683 -2.138732,-0.01266 z m -13.130223,35.20192 c 0,-2.314394 -0.072989,-2.630484 -0.5803011,-2.630484 -0.8115888,0 -2.0302114,0.867931 -2.0302114,1.446276 0,0.329562 0.20588,0.432036 0.6524745,0.321339 0.5981651,-0.148028 0.65247,-0.01271 0.65247,1.665898 0,1.621684 0.072945,1.82796 0.6524657,1.82796 0.6014313,0 0.6524793,-0.205579 0.6524793,-2.630547 z m 12.385119,-1.856995 c 0.339573,-1.499851 0.416568,-1.580124 2.530821,-2.619159 3.300847,-1.622189 6.913186,-4.303215 11.300801,-8.387183 l 3.962235,-3.68799 -0.815643,-0.621171 c -1.697065,-1.291488 -2.69727,-1.357401 -9.653893,-0.636731 -3.57277,0.370677 -6.965745,0.812519 -7.540036,0.980969 -1.385308,0.409263 -2.946321,2.14253 -3.233245,3.590576 -0.247892,1.251132 -0.04006,2.646486 1.572273,10.605936 0.968562,4.778579 1.050763,5.016926 1.280855,3.713672 0.135294,-0.765583 0.403659,-2.088952 0.595744,-2.940058 z m 3.190608,-6.241553 c -0.0859,-0.142335 -0.255459,-0.780006 -0.376958,-1.419898 -0.201161,-1.058076 -0.14331,-1.190471 0.637047,-1.472211 0.471707,-0.169534 0.97991,-0.238473 1.128734,-0.150554 0.280382,0.165093 0.806475,2.589304 0.603844,2.781539 -0.299963,0.285283 -1.854744,0.488965 -1.992445,0.261245 z m 29.8455,-6.988096 c 0.162889,-1.974462 -0.158882,-2.969155 -1.233056,-3.809948 L 53.434113,27.03129 57.863918,15.448182 C 60.679438,8.0861179 62.228346,3.61806 62.114369,3.1874159 61.702698,1.6323409 59.554353,0.96600657 58.332734,2.0150371 c -0.305749,0.261878 -2.581112,5.7395581 -5.057238,12.1720179 -4.11373,10.686587 -4.580587,11.728281 -5.412029,12.077388 -0.500105,0.210641 -1.6409,1.264351 -2.534428,2.34286 l -1.624521,1.960735 1.602803,0.653619 c 2.246524,0.916003 6.365774,1.832956 8.359241,1.859587 l 1.681355,0.02531 z"
       style="fill:#1a1a1a;stroke-width:3.2822"
       id="path1" /></g></svg>
