<?xml version="1.0" encoding="UTF-8" standalone="no"?>
<!-- Created with Inkscape (http://www.inkscape.org/) -->

<svg
   width="54.830566mm"
   height="9.5704813mm"
   viewBox="0 0 62.562139 10.92"
   version="1.1"
   id="svg1"
   xml:space="preserve"
   xmlns="http://www.w3.org/2000/svg"
   xmlns:svg="http://www.w3.org/2000/svg"><defs
     id="defs1" /><g
     id="layer1"
     transform="translate(-3.8377161,-4.3531455)"><path
       d="m 9.3327965,14.535865 c 0.167548,-0.109608 0.1452555,-0.593176 -0.031486,-0.68187 -0.209372,-0.105233 -0.5127795,-0.08658 -0.6411202,0.0394 -0.1330466,0.13035 -0.14667,0.526519 -0.021761,0.634602 0.1712625,0.14843 0.474386,0.151853 0.6943557,0.0076 z m -0.449546,-0.098 c -0.09147,-0.0628 -0.049893,-0.396226 0.056969,-0.457161 0.1385311,-0.07897 0.1969337,0.01715 0.1657776,0.27191 -0.02158,0.176781 -0.1181857,0.257104 -0.2228366,0.185154 z m 3.5831015,-0.737213 c 0,-0.449431 -0.03733,-0.477576 -0.420832,-0.317367 -0.145786,0.06089 -0.192387,0.108278 -0.15127,0.153947 0.03255,0.03636 0.110577,0.05235 0.173209,0.03578 0.09642,-0.02552 0.113939,0.0133 0.113939,0.251449 0,0.24892 0.01592,0.281538 0.142423,0.281538 0.130924,0 0.142424,-0.03251 0.142424,-0.405379 z M 7.7660284,13.466525 c 0,-0.399123 -0.00707,-0.41577 -0.1602931,-0.41421 -0.1977657,0.0017 -0.5086392,0.172406 -0.4445571,0.24361 0.025832,0.02873 0.1084545,0.03882 0.183488,0.02248 0.1242005,-0.02701 0.1364083,-0.004 0.1364083,0.267093 0,0.26422 0.015921,0.296837 0.142424,0.296837 0.1312777,0 0.1424237,-0.03251 0.1424237,-0.415844 z M 5.843165,13.441985 c 0.1848504,-0.126926 0.2002073,-0.559991 0.024592,-0.69331 -0.1564008,-0.118743 -0.4691847,-0.113605 -0.6325743,0.0095 -0.2024189,0.153562 -0.1828334,0.56975 0.032375,0.68952 0.2117252,0.117791 0.3975836,0.115698 0.575534,-0.0057 z M 5.4158581,13.099509 c 0,-0.21347 0.01893,-0.249282 0.1245544,-0.235295 0.0966,0.0133 0.1245546,0.06584 0.1245546,0.235295 0,0.16955 -0.028131,0.222531 -0.1245546,0.235318 -0.1056234,0.0133 -0.1245544,-0.02191 -0.1245544,-0.235318 z m 5.3574369,0.207931 c 0.391462,-0.306254 0.100672,-0.862591 -0.405263,-0.775359 -0.09714,0.01715 -0.21482,0.07954 -0.261652,0.139674 -0.1305702,0.167646 -0.106153,0.508323 0.04459,0.622788 0.159762,0.121215 0.475448,0.127683 0.62233,0.0133 z m -0.429554,-0.342466 c 0.01592,-0.167268 0.05166,-0.232383 0.128446,-0.232383 0.07696,0 0.112878,0.06508 0.128624,0.232383 0.01946,0.208504 0.007,0.232388 -0.128624,0.232388 -0.134816,0 -0.148084,-0.02397 -0.128446,-0.232388 z m 6.555885,-0.0133 c 0.186053,-0.03274 0.338279,-0.07592 0.338279,-0.0959 0,-0.01996 -0.09677,-0.197752 -0.215229,-0.394954 -0.353052,-0.588152 -0.448608,-0.903122 -0.45381,-1.495787 l -0.0053,-0.544405 -0.464285,-0.0297 c -0.562476,-0.03618 -1.16876,-0.139484 -1.760553,-0.300209 l -0.441656,-0.1198838 -0.41294,0.2996528 c -0.654336,0.47484 -1.579843,1.082403 -2.129918,1.398267 -0.577409,0.331565 -0.614493,0.254609 0.302929,0.628609 l 0.508798,0.207421 0.466549,-0.429206 c 0.256611,-0.236058 0.602161,-0.575307 0.767904,-0.753918 0.307264,-0.331066 0.451085,-0.409737 0.242474,-0.132631 -0.06352,0.0843 -0.271879,0.458221 -0.463135,0.830925 l -0.347725,0.677616 0.297638,0.07802 c 0.395974,0.103707 1.474981,0.289852 1.516329,0.261444 0.01804,-0.0133 0.115354,-0.3391 0.216484,-0.726043 0.21613,-0.827542 0.261741,-0.926266 0.291234,-0.630168 0.02814,0.282828 0.232638,1.330916 0.267138,1.369263 0.0375,0.04169 1.076228,-0.02741 1.478288,-0.09819 z M 9.0906408,12.842639 C 9.0651624,12.755099 8.8970152,12.150986 8.7169598,11.499995 8.3502494,10.174079 8.348197,10.008486 8.6943137,9.6801952 9.0455968,9.3470702 9.306914,9.2881772 11.036134,9.1522892 c 1.688086,-0.132632 1.844504,-0.124833 2.388739,0.11798 l 0.282,0.125974 0.308167,-0.23986 0.308165,-0.239883 -0.198473,-0.111133 C 14.01557,8.7442872 13.74999,8.6341082 13.534567,8.5607472 13.173252,8.4376292 13.076156,8.4273532 12.2829,8.4273532 h -0.859993 l -0.234619,-1.046587 c -0.287253,-1.281365 -0.315968,-1.354686 -0.60945,-1.556303 -0.198261,-0.136244 -0.286334,-0.161367 -0.565944,-0.161367 -0.6081946,0 -1.1074567,0.289434 -1.1074567,0.642028 0,0.106752 0.2084877,0.670057 0.4633112,1.251684 0.254806,0.581604 0.4551024,1.061559 0.4451055,1.066548 -0.010653,0.0057 -0.2385284,0.03332 -0.5078252,0.06299 -0.8778264,0.09685 -1.1529611,0.297118 -1.6597421,1.208578 C 7.422053,10.298233 7.3748673,10.4443 7.3776452,10.726612 c 0.00356,0.333911 0.020521,0.365915 0.6912246,1.27945 0.3783341,0.515348 0.7293338,0.948413 0.7800227,0.962382 0.2326727,0.06413 0.2885638,0.03504 0.2416956,-0.125974 z M 9.7063186,6.6293602 c -0.1608236,-0.138148 -0.1684308,-0.27539 -0.021053,-0.37666 0.1749773,-0.120269 0.310607,-0.127116 0.4614714,-0.0234 0.132338,0.09096 0.147377,0.319443 0.02636,0.402563 -0.111639,0.07669 -0.3763714,0.07516 -0.4668504,-0.0017 z M 6.8402028,12.19439 c 0,-0.365875 -0.015925,-0.415844 -0.126678,-0.415844 -0.1771539,0 -0.443159,0.137202 -0.443159,0.228637 0,0.05213 0.044939,0.06832 0.142424,0.05081 0.1305695,-0.0234 0.1424235,-0.0017 0.1424235,0.26336 0,0.256364 0.015921,0.288981 0.142424,0.288981 0.1312778,0 0.1424237,-0.03251 0.1424237,-0.415867 z m 15.8729692,0.335103 c 0.20019,-0.04433 0.492292,-0.156229 0.649135,-0.248427 l 0.285148,-0.167647 v 0.199502 0.199523 h 0.676576 0.676557 V 9.7971892 7.0819332 h -0.712172 -0.712173 v 0.97517 0.975152 l -0.351088,-0.162319 c -0.64135,-0.296493 -1.570112,-0.324924 -2.332478,-0.07136 -0.415931,0.138338 -0.975064,0.573025 -1.174563,0.913169 -0.145431,0.247894 -0.164717,0.3621868 -0.163478,0.9660748 0.0013,0.632433 0.01592,0.705754 0.185364,0.956635 0.433446,0.640503 1.158144,0.964968 2.172184,0.972584 0.240299,0.0017 0.60071,-0.03309 0.8009,-0.07745 z M 21.652265,11.687964 C 21.028891,11.460399 20.767291,10.779836 21.050954,10.12365 21.346558,9.4398422 22.473387,9.2296632 23.285097,9.7069522 l 0.291146,0.171265 v 0.7501498 0.750144 l -0.231452,0.134157 c -0.127385,0.07364 -0.33458,0.163845 -0.460639,0.200035 -0.331272,0.09534 -0.936336,0.08335 -1.231887,-0.02454 z m 6.88238,0.849827 c 0.231772,-0.04719 0.452748,-0.140437 0.636078,-0.268257 0.290066,-0.202162 0.402465,-0.242217 0.382438,-0.136245 -0.0053,0.03366 -0.007,0.132632 -0.0035,0.220145 l 0.0089,0.159085 h 0.647454 0.647435 l -0.03009,-1.40656 C 30.79047,9.5681562 30.75683,9.4246512 30.348798,9.0846222 c -0.675778,-0.563207 -2.43888,-0.619113 -3.686357,-0.116839 -0.165778,0.06679 -0.320108,0.142145 -0.34307,0.167646 -0.03202,0.03555 0.321064,0.59508 0.427216,0.677209 0.01065,0.0076 0.252259,-0.06508 0.536292,-0.163266 0.850512,-0.294234 1.567144,-0.28226 1.952835,0.03252 0.123669,0.10104 0.180376,0.205625 0.180376,0.3329298 v 0.185726 l -0.979239,0.02397 c -1.143248,0.02798 -1.667176,0.134347 -2.092339,0.42475 -0.476492,0.325435 -0.523856,1.04927 -0.09642,1.473033 0.177688,0.176208 0.583534,0.364579 0.947872,0.440141 0.312147,0.0647 0.959195,0.05287 1.338696,-0.02454 z m -0.79223,-0.726553 c -0.30316,-0.09457 -0.408871,-0.201027 -0.417239,-0.420335 -0.01413,-0.368466 0.399407,-0.535883 1.427581,-0.578014 l 0.663305,-0.02718 v 0.320853 c 0,0.299155 -0.01413,0.329507 -0.222197,0.449259 -0.479323,0.277065 -1.056324,0.378605 -1.45145,0.255429 z m 7.197041,0.744272 c 0.301869,-0.05213 0.316377,-0.06299 0.315792,-0.232388 -3.35e-4,-0.09762 -0.02034,-0.290937 -0.04459,-0.429412 l -0.04406,-0.251753 -0.237944,0.06831 c -0.33943,0.09743 -0.763942,0.08639 -0.96459,-0.02512 -0.165777,-0.09211 -0.168432,-0.108278 -0.189928,-1.125234 l -0.02175,-1.0318028 h 0.719056 0.719052 l -0.02069,-0.40363 -0.02069,-0.403607 -0.694358,-0.0133 -0.694373,-0.0133 v -0.543034 -0.543039 l -0.33828,0.0312 c -0.18605,0.01715 -0.50653,0.05654 -0.712169,0.08773 l -0.373894,0.05671 v 0.456989 0.456983 h -0.462904 -0.46292 v 0.415844 0.415867 h 0.46292 0.462904 l 3.96e-4,1.0885448 c 2.28e-4,0.638753 0.03274,1.169401 0.07873,1.284238 0.09978,0.249701 0.592607,0.581822 0.963263,0.649219 0.377961,0.0687 1.179109,0.07155 1.561193,0.0057 z m 3.265522,-0.02472 c 0.186709,-0.04375 0.470036,-0.164797 0.629638,-0.269077 0.159586,-0.104281 0.300965,-0.189529 0.314182,-0.189529 0.0124,0 0.02405,0.09914 0.02405,0.220151 v 0.220168 h 0.645721 0.645718 l -0.02262,-1.455486 c -0.02192,-1.4178858 -0.0269,-1.4615018 -0.191556,-1.6891868 -0.210647,-0.291316 -0.636644,-0.546366 -1.08258,-0.648112 -0.434719,-0.09914 -1.546793,-0.102951 -2.003348,-0.0076 -0.184265,0.03882 -0.544517,0.151091 -0.800525,0.249379 l -0.465507,0.178874 0.251922,0.343648 c 0.138532,0.188955 0.274445,0.335654 0.302011,0.325911 0.735863,-0.260682 1.097672,-0.353866 1.439858,-0.370858 0.704813,-0.03504 1.108732,0.160416 1.189835,0.5757838 l 0.03858,0.197563 h -0.789291 c -1.169183,0 -1.931497,0.145952 -2.341852,0.448364 -0.512674,0.377842 -0.501175,1.130446 0.02369,1.551698 0.446253,0.358167 1.417744,0.498965 2.192035,0.317728 z m -0.860399,-0.725716 c -0.124199,-0.0371 -0.260432,-0.111896 -0.302679,-0.166127 -0.09873,-0.126737 -0.09855,-0.377177 3.94e-4,-0.504257 0.134461,-0.172595 0.67677,-0.2983 1.399538,-0.324277 l 0.659664,-0.0238 v 0.290616 c 0,0.263743 -0.0214,0.304808 -0.231453,0.444218 -0.280672,0.186294 -0.795328,0.352971 -1.086066,0.35183 -0.117478,-4.59e-4 -0.31528,-0.0312 -0.439497,-0.06831 z m 7.189325,0.707176 c 0.209692,-0.05385 0.473275,-0.164028 0.585745,-0.244619 0.112522,-0.08068 0.230548,-0.146521 0.262379,-0.146521 0.03187,0 0.05785,0.0881 0.05785,0.195693 v 0.1957 H 46.080837 46.7218 V 9.8005972 7.0887082 l -0.676734,-0.0152 -0.676718,-0.01525 1.58e-4,0.990698 c 9e-5,0.544898 -0.02796,0.990716 -0.06228,0.990716 -0.03432,0 -0.104384,-0.03464 -0.155515,-0.07688 -0.157466,-0.13035 -0.642183,-0.274404 -1.058679,-0.314574 -0.768948,-0.07421 -1.626515,0.125022 -2.085954,0.484445 -0.555011,0.434229 -0.852471,1.2146338 -0.716576,1.8799318 0.162062,0.792986 0.788372,1.355546 1.729008,1.552822 0.35751,0.07497 1.123094,0.04851 1.515373,-0.05235 z m -1.052447,-0.802763 c -0.503686,-0.153758 -0.747792,-0.49221 -0.747792,-1.036712 0,-0.479267 0.109873,-0.7256928 0.424655,-0.9528048 0.526281,-0.379654 1.385491,-0.361327 2.014545,0.04301 l 0.195839,0.125779 v 0.7196258 0.719649 l -0.261884,0.157943 c -0.144016,0.08696 -0.367347,0.188199 -0.496236,0.225209 -0.294524,0.08449 -0.849252,0.08373 -1.129127,-0.0017 z m 7.014896,0.781397 c 0.137114,-0.04777 0.385463,-0.17716 0.551931,-0.287531 l 0.302664,-0.200567 v 0.254798 0.254821 h 0.640958 0.640963 V 10.628838 8.7452932 h -0.676575 -0.676557 v 1.24021 1.2402038 l -0.205375,0.194764 c -0.348133,0.330137 -0.925135,0.443725 -1.465781,0.28854 -0.465803,-0.133773 -0.498253,-0.237922 -0.52309,-1.679479 L 49.063371,8.7452932 H 48.35081 47.638247 l 0.02247,1.4799378 c 0.02175,1.436952 0.02744,1.486675 0.18913,1.712377 0.201498,0.281079 0.576453,0.504315 1.008447,0.600355 0.424303,0.09438 1.305223,0.06907 1.638,-0.04702 z m 5.839802,-0.02323 c 0.703589,-0.247664 0.997035,-0.558488 0.997035,-1.056042 0,-0.609129 -0.415026,-0.934352 -1.551854,-1.216062 -0.962109,-0.2384148 -1.140219,-0.3545138 -0.911582,-0.5942248 0.207816,-0.217863 0.824202,-0.219159 1.483155,-0.004 l 0.337234,0.11056 0.09749,-0.102566 c 0.0536,-0.05654 0.16967,-0.199811 0.257813,-0.318646 l 0.160293,-0.216073 -0.167724,-0.08925 c -0.867883,-0.46231 -2.326852,-0.47074 -3.108554,-0.01715 -0.35015,0.202816 -0.513203,0.459575 -0.513203,0.808114 0,0.16346 0.04335,0.3682538 0.09625,0.4552508 0.178501,0.293471 0.785103,0.581799 1.677719,0.797459 0.970568,0.234499 1.069664,0.730625 0.157991,0.790814 -0.411524,0.02718 -0.787949,-0.04817 -1.194554,-0.238908 -0.33373,-0.156614 -0.313031,-0.164223 -0.661855,0.244235 -0.214149,0.25079 -0.218765,0.267041 -0.1012,0.356286 0.401227,0.304562 1.001693,0.435542 1.912975,0.417312 0.57631,-0.01141 0.773314,-0.03578 1.032652,-0.127115 z m 4.768049,0.08963 c 0.404945,-0.05975 0.400997,-0.05195 0.314623,-0.619595 l -0.04494,-0.295541 -0.237613,0.06813 c -0.381427,0.109419 -0.789346,0.0881 -0.993213,-0.05195 -0.174271,-0.119695 -0.1748,-0.123308 -0.1748,-1.125251 V 9.5279332 h 0.715056 0.715056 l -0.02069,-0.40363 -0.02069,-0.403606 h -0.69448 -0.694463 l 1.07e-4,-0.556699 9e-5,-0.556699 -0.373877,0.03406 c -0.205656,0.01904 -0.52612,0.05631 -0.712174,0.08373 l -0.338296,0.04983 v 0.460716 0.460716 h -0.462905 -0.46292 v 0.415844 0.415867 h 0.46292 0.462905 v 1.1179228 c 0,1.419995 0.07378,1.589832 0.797876,1.837726 0.414849,0.141956 1.102786,0.170691 1.762446,0.07345 z M 9.5436731,11.900817 c 0.074129,-0.237102 0.090943,-0.249792 0.5524449,-0.414055 0.720523,-0.256455 1.509039,-0.680293 2.466782,-1.325916 l 0.864892,-0.5830318 -0.178039,-0.09819 c -0.370444,-0.204169 -0.588767,-0.214594 -2.107288,-0.100668 -0.779881,0.05861 -1.5205216,0.128452 -1.645872,0.155088 -0.3023979,0.0647 -0.6431365,0.338705 -0.7057675,0.5676228 -0.054138,0.197792 -0.00884,0.418379 0.3431967,1.676681 0.2114246,0.755443 0.2293649,0.793118 0.2795936,0.587091 0.029553,-0.121025 0.088109,-0.330235 0.1300397,-0.464787 z m 0.6964609,-0.986719 c -0.01876,-0.02248 -0.05573,-0.123307 -0.08227,-0.224468 -0.04387,-0.167268 -0.03132,-0.188199 0.139062,-0.232744 0.102968,-0.02684 0.213901,-0.03768 0.246385,-0.0238 0.06121,0.02609 0.176039,0.409336 0.131807,0.439722 -0.06546,0.04507 -0.404854,0.07726 -0.434913,0.04129 z m 53.3021,0.436339 c 0.02069,-1.069266 0.03467,-1.180187 0.176397,-1.3908408 0.202045,-0.300341 0.47212,-0.397024 1.109012,-0.397024 h 0.481815 v -0.457579 -0.457574 h -0.466459 c -0.549227,0 -0.780145,0.07022 -1.114904,0.338854 l -0.242548,0.194666 -0.08475,-0.217845 -0.08475,-0.217828 h -0.570012 -0.570014 v 1.8835498 1.883561 h 0.671905 0.671905 z M 16.754937,9.8093592 c 0.03556,-0.312137 -0.03468,-0.469392 -0.269155,-0.602311 l -0.177896,-0.100857 0.96696,-1.83116 c 0.614581,-1.163861 0.952683,-1.870206 0.927807,-1.938291 -0.08988,-0.245841 -0.558814,-0.351183 -0.825474,-0.185343 -0.06671,0.04146 -0.563414,0.907366 -1.103917,1.924265 -0.89796,1.689433 -0.999868,1.854109 -1.181358,1.909297 -0.109162,0.03332 -0.358182,0.19988 -0.553224,0.370382 l -0.354609,0.309969 0.349868,0.103329 c 0.49038,0.144812 1.389544,0.2897718 1.824689,0.2939818 l 0.36701,0.004 z"
       style="fill:#000000;stroke-width:0.609714"
       id="path1-3" /></g></svg>
